<?xml version="1.0" encoding="UTF-8"?>
<svg xmlns="http://www.w3.org/2000/svg" width="760" height="250" viewBox="0 0 760 250">
<defs>
  <linearGradient id="g" x1="0" x2="1">
    <stop stop-color="#6D28D9"/><stop offset=".5" stop-color="#8B5CF6"/><stop offset="1" stop-color="#3B82F6"/>
  </linearGradient>
  <filter id="gl"><feGaussianBlur stdDeviation="3.5" result="b"/><feMerge><feMergeNode in="b"/><feMergeNode in="SourceGraphic"/></feMerge></filter>
  <style>
    @keyframes pulse {0%,100%{opacity:.55}50%{opacity:1}}
    @keyframes sweep {from{transform:translateX(-840px)}to{transform:translateX(840px)}}
    .cell{animation:pulse 2.8s ease-in-out infinite}
  </style>
  <clipPath id="clip"><rect x="5" y="5" width="750" height="240" rx="24"/></clipPath>
</defs>
<rect x="5" y="5" width="750" height="240" rx="24" fill="#050505" stroke="#6D28D9" stroke-opacity=".55"/>
<text x="28" y="34" fill="#EDE9FE" font-family="ui-sans-serif,system-ui" font-size="15" font-weight="900">CONTRIBUTION ACTIVITY</text>
<text x="28" y="54" fill="#94A3B8" font-family="ui-monospace,monospace" font-size="10">BUILD • LEARN • SHIP • REPEAT</text>
<g transform="translate(75,78)">
<rect class="cell" style="animation-delay:0.00s" x="0" y="0" width="9" height="14" rx="2" fill="#8B5CF6" opacity="0.1"/><rect class="cell" style="animation-delay:0.07s" x="12" y="0" width="9" height="14" rx="2" fill="#8B5CF6" opacity="0.3"/><rect class="cell" style="animation-delay:0.14s" x="24" y="0" width="9" height="14" rx="2" fill="#8B5CF6" opacity="0.7"/><rect class="cell" style="animation-delay:0.21s" x="36" y="0" width="9" height="14" rx="2" fill="#8B5CF6" opacity="0.18"/><rect class="cell" style="animation-delay:0.28s" x="48" y="0" width="9" height="14" rx="2" fill="#8B5CF6" opacity="0.48"/><rect class="cell" style="animation-delay:0.35s" x="60" y="0" width="9" height="14" rx="2" fill="#8B5CF6" opacity="0.1"/><rect class="cell" style="animation-delay:0.42s" x="72" y="0" width="9" height="14" rx="2" fill="#8B5CF6" opacity="0.3"/><rect class="cell" style="animation-delay:0.49s" x="84" y="0" width="9" height="14" rx="2" fill="#8B5CF6" opacity="0.7"/><rect class="cell" style="animation-delay:0.56s" x="96" y="0" width="9" height="14" rx="2" fill="#8B5CF6" opacity="0.18"/><rect class="cell" style="animation-delay:0.63s" x="108" y="0" width="9" height="14" rx="2" fill="#8B5CF6" opacity="0.48"/><rect class="cell" style="animation-delay:0.70s" x="120" y="0" width="9" height="14" rx="2" fill="#8B5CF6" opacity="0.1"/><rect class="cell" style="animation-delay:0.77s" x="132" y="0" width="9" height="14" rx="2" fill="#8B5CF6" opacity="0.3"/><rect class="cell" style="animation-delay:0.84s" x="144" y="0" width="9" height="14" rx="2" fill="#8B5CF6" opacity="0.7"/><rect class="cell" style="animation-delay:0.00s" x="156" y="0" width="9" height="14" rx="2" fill="#8B5CF6" opacity="0.18"/><rect class="cell" style="animation-delay:0.07s" x="168" y="0" width="9" height="14" rx="2" fill="#8B5CF6" opacity="0.48"/><rect class="cell" style="animation-delay:0.14s" x="180" y="0" width="9" height="14" rx="2" fill="#8B5CF6" opacity="0.1"/><rect class="cell" style="animation-delay:0.21s" x="192" y="0" width="9" height="14" rx="2" fill="#8B5CF6" opacity="0.3"/><rect class="cell" style="animation-delay:0.28s" x="204" y="0" width="9" height="14" rx="2" fill="#8B5CF6" opacity="0.7"/><rect class="cell" style="animation-delay:0.35s" x="216" y="0" width="9" height="14" rx="2" fill="#8B5CF6" opacity="0.18"/><rect class="cell" style="animation-delay:0.42s" x="228" y="0" width="9" height="14" rx="2" fill="#8B5CF6" opacity="0.48"/><rect class="cell" style="animation-delay:0.49s" x="240" y="0" width="9" height="14" rx="2" fill="#8B5CF6" opacity="0.1"/><rect class="cell" style="animation-delay:0.56s" x="252" y="0" width="9" height="14" rx="2" fill="#8B5CF6" opacity="0.3"/><rect class="cell" style="animation-delay:0.63s" x="264" y="0" width="9" height="14" rx="2" fill="#8B5CF6" opacity="0.7"/><rect class="cell" style="animation-delay:0.70s" x="276" y="0" width="9" height="14" rx="2" fill="#8B5CF6" opacity="0.18"/><rect class="cell" style="animation-delay:0.77s" x="288" y="0" width="9" height="14" rx="2" fill="#8B5CF6" opacity="0.48"/><rect class="cell" style="animation-delay:0.84s" x="300" y="0" width="9" height="14" rx="2" fill="#8B5CF6" opacity="0.1"/><rect class="cell" style="animation-delay:0.00s" x="312" y="0" width="9" height="14" rx="2" fill="#8B5CF6" opacity="0.3"/><rect class="cell" style="animation-delay:0.07s" x="324" y="0" width="9" height="14" rx="2" fill="#8B5CF6" opacity="0.7"/><rect class="cell" style="animation-delay:0.14s" x="336" y="0" width="9" height="14" rx="2" fill="#8B5CF6" opacity="0.18"/><rect class="cell" style="animation-delay:0.21s" x="348" y="0" width="9" height="14" rx="2" fill="#8B5CF6" opacity="0.48"/><rect class="cell" style="animation-delay:0.28s" x="360" y="0" width="9" height="14" rx="2" fill="#8B5CF6" opacity="0.1"/><rect class="cell" style="animation-delay:0.35s" x="372" y="0" width="9" height="14" rx="2" fill="#8B5CF6" opacity="0.3"/><rect class="cell" style="animation-delay:0.42s" x="384" y="0" width="9" height="14" rx="2" fill="#8B5CF6" opacity="0.7"/><rect class="cell" style="animation-delay:0.49s" x="396" y="0" width="9" height="14" rx="2" fill="#8B5CF6" opacity="0.18"/><rect class="cell" style="animation-delay:0.56s" x="408" y="0" width="9" height="14" rx="2" fill="#8B5CF6" opacity="0.48"/><rect class="cell" style="animation-delay:0.63s" x="420" y="0" width="9" height="14" rx="2" fill="#8B5CF6" opacity="0.1"/><rect class="cell" style="animation-delay:0.70s" x="432" y="0" width="9" height="14" rx="2" fill="#8B5CF6" opacity="0.3"/><rect class="cell" style="animation-delay:0.77s" x="444" y="0" width="9" height="14" rx="2" fill="#8B5CF6" opacity="0.7"/><rect class="cell" style="animation-delay:0.84s" x="456" y="0" width="9" height="14" rx="2" fill="#8B5CF6" opacity="0.18"/><rect class="cell" style="animation-delay:0.00s" x="468" y="0" width="9" height="14" rx="2" fill="#8B5CF6" opacity="0.48"/><rect class="cell" style="animation-delay:0.07s" x="480" y="0" width="9" height="14" rx="2" fill="#8B5CF6" opacity="0.1"/><rect class="cell" style="animation-delay:0.14s" x="492" y="0" width="9" height="14" rx="2" fill="#8B5CF6" opacity="0.3"/><rect class="cell" style="animation-delay:0.21s" x="504" y="0" width="9" height="14" rx="2" fill="#8B5CF6" opacity="0.7"/><rect class="cell" style="animation-delay:0.28s" x="516" y="0" width="9" height="14" rx="2" fill="#8B5CF6" opacity="0.18"/><rect class="cell" style="animation-delay:0.35s" x="528" y="0" width="9" height="14" rx="2" fill="#8B5CF6" opacity="0.48"/><rect class="cell" style="animation-delay:0.42s" x="540" y="0" width="9" height="14" rx="2" fill="#8B5CF6" opacity="0.1"/><rect class="cell" style="animation-delay:0.49s" x="552" y="0" width="9" height="14" rx="2" fill="#8B5CF6" opacity="0.3"/><rect class="cell" style="animation-delay:0.56s" x="564" y="0" width="9" height="14" rx="2" fill="#8B5CF6" opacity="0.7"/><rect class="cell" style="animation-delay:0.63s" x="576" y="0" width="9" height="14" rx="2" fill="#8B5CF6" opacity="0.18"/><rect class="cell" style="animation-delay:0.70s" x="588" y="0" width="9" height="14" rx="2" fill="#8B5CF6" opacity="0.48"/><rect class="cell" style="animation-delay:0.77s" x="600" y="0" width="9" height="14" rx="2" fill="#8B5CF6" opacity="0.1"/><rect class="cell" style="animation-delay:0.84s" x="612" y="0" width="9" height="14" rx="2" fill="#8B5CF6" opacity="0.3"/><rect class="cell" style="animation-delay:0.00s" x="0" y="19" width="9" height="14" rx="2" fill="#8B5CF6" opacity="0.18"/><rect class="cell" style="animation-delay:0.07s" x="12" y="19" width="9" height="14" rx="2" fill="#8B5CF6" opacity="0.7"/><rect class="cell" style="animation-delay:0.14s" x="24" y="19" width="9" height="14" rx="2" fill="#8B5CF6" opacity="0.3"/><rect class="cell" style="animation-delay:0.21s" x="36" y="19" width="9" height="14" rx="2" fill="#8B5CF6" opacity="0.1"/><rect class="cell" style="animation-delay:0.28s" x="48" y="19" width="9" height="14" rx="2" fill="#8B5CF6" opacity="0.48"/><rect class="cell" style="animation-delay:0.35s" x="60" y="19" width="9" height="14" rx="2" fill="#8B5CF6" opacity="0.18"/><rect class="cell" style="animation-delay:0.42s" x="72" y="19" width="9" height="14" rx="2" fill="#8B5CF6" opacity="0.7"/><rect class="cell" style="animation-delay:0.49s" x="84" y="19" width="9" height="14" rx="2" fill="#8B5CF6" opacity="0.3"/><rect class="cell" style="animation-delay:0.56s" x="96" y="19" width="9" height="14" rx="2" fill="#8B5CF6" opacity="0.1"/><rect class="cell" style="animation-delay:0.63s" x="108" y="19" width="9" height="14" rx="2" fill="#8B5CF6" opacity="0.48"/><rect class="cell" style="animation-delay:0.70s" x="120" y="19" width="9" height="14" rx="2" fill="#8B5CF6" opacity="0.18"/><rect class="cell" style="animation-delay:0.77s" x="132" y="19" width="9" height="14" rx="2" fill="#8B5CF6" opacity="0.7"/><rect class="cell" style="animation-delay:0.84s" x="144" y="19" width="9" height="14" rx="2" fill="#8B5CF6" opacity="0.3"/><rect class="cell" style="animation-delay:0.00s" x="156" y="19" width="9" height="14" rx="2" fill="#8B5CF6" opacity="0.1"/><rect class="cell" style="animation-delay:0.07s" x="168" y="19" width="9" height="14" rx="2" fill="#8B5CF6" opacity="0.48"/><rect class="cell" style="animation-delay:0.14s" x="180" y="19" width="9" height="14" rx="2" fill="#8B5CF6" opacity="0.18"/><rect class="cell" style="animation-delay:0.21s" x="192" y="19" width="9" height="14" rx="2" fill="#8B5CF6" opacity="0.7"/><rect class="cell" style="animation-delay:0.28s" x="204" y="19" width="9" height="14" rx="2" fill="#8B5CF6" opacity="0.3"/><rect class="cell" style="animation-delay:0.35s" x="216" y="19" width="9" height="14" rx="2" fill="#8B5CF6" opacity="0.1"/><rect class="cell" style="animation-delay:0.42s" x="228" y="19" width="9" height="14" rx="2" fill="#8B5CF6" opacity="0.48"/><rect class="cell" style="animation-delay:0.49s" x="240" y="19" width="9" height="14" rx="2" fill="#8B5CF6" opacity="0.18"/><rect class="cell" style="animation-delay:0.56s" x="252" y="19" width="9" height="14" rx="2" fill="#8B5CF6" opacity="0.7"/><rect class="cell" style="animation-delay:0.63s" x="264" y="19" width="9" height="14" rx="2" fill="#8B5CF6" opacity="0.3"/><rect class="cell" style="animation-delay:0.70s" x="276" y="19" width="9" height="14" rx="2" fill="#8B5CF6" opacity="0.1"/><rect class="cell" style="animation-delay:0.77s" x="288" y="19" width="9" height="14" rx="2" fill="#8B5CF6" opacity="0.48"/><rect class="cell" style="animation-delay:0.84s" x="300" y="19" width="9" height="14" rx="2" fill="#8B5CF6" opacity="0.18"/><rect class="cell" style="animation-delay:0.00s" x="312" y="19" width="9" height="14" rx="2" fill="#8B5CF6" opacity="0.7"/><rect class="cell" style="animation-delay:0.07s" x="324" y="19" width="9" height="14" rx="2" fill="#8B5CF6" opacity="0.3"/><rect class="cell" style="animation-delay:0.14s" x="336" y="19" width="9" height="14" rx="2" fill="#8B5CF6" opacity="0.1"/><rect class="cell" style="animation-delay:0.21s" x="348" y="19" width="9" height="14" rx="2" fill="#8B5CF6" opacity="0.48"/><rect class="cell" style="animation-delay:0.28s" x="360" y="19" width="9" height="14" rx="2" fill="#8B5CF6" opacity="0.18"/><rect class="cell" style="animation-delay:0.35s" x="372" y="19" width="9" height="14" rx="2" fill="#8B5CF6" opacity="0.7"/><rect class="cell" style="animation-delay:0.42s" x="384" y="19" width="9" height="14" rx="2" fill="#8B5CF6" opacity="0.3"/><rect class="cell" style="animation-delay:0.49s" x="396" y="19" width="9" height="14" rx="2" fill="#8B5CF6" opacity="0.1"/><rect class="cell" style="animation-delay:0.56s" x="408" y="19" width="9" height="14" rx="2" fill="#8B5CF6" opacity="0.48"/><rect class="cell" style="animation-delay:0.63s" x="420" y="19" width="9" height="14" rx="2" fill="#8B5CF6" opacity="0.18"/><rect class="cell" style="animation-delay:0.70s" x="432" y="19" width="9" height="14" rx="2" fill="#8B5CF6" opacity="0.7"/><rect class="cell" style="animation-delay:0.77s" x="444" y="19" width="9" height="14" rx="2" fill="#8B5CF6" opacity="0.3"/><rect class="cell" style="animation-delay:0.84s" x="456" y="19" width="9" height="14" rx="2" fill="#8B5CF6" opacity="0.1"/><rect class="cell" style="animation-delay:0.00s" x="468" y="19" width="9" height="14" rx="2" fill="#8B5CF6" opacity="0.48"/><rect class="cell" style="animation-delay:0.07s" x="480" y="19" width="9" height="14" rx="2" fill="#8B5CF6" opacity="0.18"/><rect class="cell" style="animation-delay:0.14s" x="492" y="19" width="9" height="14" rx="2" fill="#8B5CF6" opacity="0.7"/><rect class="cell" style="animation-delay:0.21s" x="504" y="19" width="9" height="14" rx="2" fill="#8B5CF6" opacity="0.3"/><rect class="cell" style="animation-delay:0.28s" x="516" y="19" width="9" height="14" rx="2" fill="#8B5CF6" opacity="0.1"/><rect class="cell" style="animation-delay:0.35s" x="528" y="19" width="9" height="14" rx="2" fill="#8B5CF6" opacity="0.48"/><rect class="cell" style="animation-delay:0.42s" x="540" y="19" width="9" height="14" rx="2" fill="#8B5CF6" opacity="0.18"/><rect class="cell" style="animation-delay:0.49s" x="552" y="19" width="9" height="14" rx="2" fill="#8B5CF6" opacity="0.7"/><rect class="cell" style="animation-delay:0.56s" x="564" y="19" width="9" height="14" rx="2" fill="#8B5CF6" opacity="0.3"/><rect class="cell" style="animation-delay:0.63s" x="576" y="19" width="9" height="14" rx="2" fill="#8B5CF6" opacity="0.1"/><rect class="cell" style="animation-delay:0.70s" x="588" y="19" width="9" height="14" rx="2" fill="#8B5CF6" opacity="0.48"/><rect class="cell" style="animation-delay:0.77s" x="600" y="19" width="9" height="14" rx="2" fill="#8B5CF6" opacity="0.18"/><rect class="cell" style="animation-delay:0.84s" x="612" y="19" width="9" height="14" rx="2" fill="#8B5CF6" opacity="0.7"/><rect class="cell" style="animation-delay:0.00s" x="0" y="38" width="9" height="14" rx="2" fill="#8B5CF6" opacity="0.3"/><rect class="cell" style="animation-delay:0.07s" x="12" y="38" width="9" height="14" rx="2" fill="#8B5CF6" opacity="0.18"/><rect class="cell" style="animation-delay:0.14s" x="24" y="38" width="9" height="14" rx="2" fill="#8B5CF6" opacity="0.1"/><rect class="cell" style="animation-delay:0.21s" x="36" y="38" width="9" height="14" rx="2" fill="#8B5CF6" opacity="0.7"/><rect class="cell" style="animation-delay:0.28s" x="48" y="38" width="9" height="14" rx="2" fill="#8B5CF6" opacity="0.48"/><rect class="cell" style="animation-delay:0.35s" x="60" y="38" width="9" height="14" rx="2" fill="#8B5CF6" opacity="0.3"/><rect class="cell" style="animation-delay:0.42s" x="72" y="38" width="9" height="14" rx="2" fill="#8B5CF6" opacity="0.18"/><rect class="cell" style="animation-delay:0.49s" x="84" y="38" width="9" height="14" rx="2" fill="#8B5CF6" opacity="0.1"/><rect class="cell" style="animation-delay:0.56s" x="96" y="38" width="9" height="14" rx="2" fill="#8B5CF6" opacity="0.7"/><rect class="cell" style="animation-delay:0.63s" x="108" y="38" width="9" height="14" rx="2" fill="#8B5CF6" opacity="0.48"/><rect class="cell" style="animation-delay:0.70s" x="120" y="38" width="9" height="14" rx="2" fill="#8B5CF6" opacity="0.3"/><rect class="cell" style="animation-delay:0.77s" x="132" y="38" width="9" height="14" rx="2" fill="#8B5CF6" opacity="0.18"/><rect class="cell" style="animation-delay:0.84s" x="144" y="38" width="9" height="14" rx="2" fill="#8B5CF6" opacity="0.1"/><rect class="cell" style="animation-delay:0.00s" x="156" y="38" width="9" height="14" rx="2" fill="#8B5CF6" opacity="0.7"/><rect class="cell" style="animation-delay:0.07s" x="168" y="38" width="9" height="14" rx="2" fill="#8B5CF6" opacity="0.48"/><rect class="cell" style="animation-delay:0.14s" x="180" y="38" width="9" height="14" rx="2" fill="#8B5CF6" opacity="0.3"/><rect class="cell" style="animation-delay:0.21s" x="192" y="38" width="9" height="14" rx="2" fill="#8B5CF6" opacity="0.18"/><rect class="cell" style="animation-delay:0.28s" x="204" y="38" width="9" height="14" rx="2" fill="#8B5CF6" opacity="0.1"/><rect class="cell" style="animation-delay:0.35s" x="216" y="38" width="9" height="14" rx="2" fill="#8B5CF6" opacity="0.7"/><rect class="cell" style="animation-delay:0.42s" x="228" y="38" width="9" height="14" rx="2" fill="#8B5CF6" opacity="0.48"/><rect class="cell" style="animation-delay:0.49s" x="240" y="38" width="9" height="14" rx="2" fill="#8B5CF6" opacity="0.3"/><rect class="cell" style="animation-delay:0.56s" x="252" y="38" width="9" height="14" rx="2" fill="#8B5CF6" opacity="0.18"/><rect class="cell" style="animation-delay:0.63s" x="264" y="38" width="9" height="14" rx="2" fill="#8B5CF6" opacity="0.1"/><rect class="cell" style="animation-delay:0.70s" x="276" y="38" width="9" height="14" rx="2" fill="#8B5CF6" opacity="0.7"/><rect class="cell" style="animation-delay:0.77s" x="288" y="38" width="9" height="14" rx="2" fill="#8B5CF6" opacity="0.48"/><rect class="cell" style="animation-delay:0.84s" x="300" y="38" width="9" height="14" rx="2" fill="#8B5CF6" opacity="0.3"/><rect class="cell" style="animation-delay:0.00s" x="312" y="38" width="9" height="14" rx="2" fill="#8B5CF6" opacity="0.18"/><rect class="cell" style="animation-delay:0.07s" x="324" y="38" width="9" height="14" rx="2" fill="#8B5CF6" opacity="0.1"/><rect class="cell" style="animation-delay:0.14s" x="336" y="38" width="9" height="14" rx="2" fill="#8B5CF6" opacity="0.7"/><rect class="cell" style="animation-delay:0.21s" x="348" y="38" width="9" height="14" rx="2" fill="#8B5CF6" opacity="0.48"/><rect class="cell" style="animation-delay:0.28s" x="360" y="38" width="9" height="14" rx="2" fill="#8B5CF6" opacity="0.3"/><rect class="cell" style="animation-delay:0.35s" x="372" y="38" width="9" height="14" rx="2" fill="#8B5CF6" opacity="0.18"/><rect class="cell" style="animation-delay:0.42s" x="384" y="38" width="9" height="14" rx="2" fill="#8B5CF6" opacity="0.1"/><rect class="cell" style="animation-delay:0.49s" x="396" y="38" width="9" height="14" rx="2" fill="#8B5CF6" opacity="0.7"/><rect class="cell" style="animation-delay:0.56s" x="408" y="38" width="9" height="14" rx="2" fill="#8B5CF6" opacity="0.48"/><rect class="cell" style="animation-delay:0.63s" x="420" y="38" width="9" height="14" rx="2" fill="#8B5CF6" opacity="0.3"/><rect class="cell" style="animation-delay:0.70s" x="432" y="38" width="9" height="14" rx="2" fill="#8B5CF6" opacity="0.18"/><rect class="cell" style="animation-delay:0.77s" x="444" y="38" width="9" height="14" rx="2" fill="#8B5CF6" opacity="0.1"/><rect class="cell" style="animation-delay:0.84s" x="456" y="38" width="9" height="14" rx="2" fill="#8B5CF6" opacity="0.7"/><rect class="cell" style="animation-delay:0.00s" x="468" y="38" width="9" height="14" rx="2" fill="#8B5CF6" opacity="0.48"/><rect class="cell" style="animation-delay:0.07s" x="480" y="38" width="9" height="14" rx="2" fill="#8B5CF6" opacity="0.3"/><rect class="cell" style="animation-delay:0.14s" x="492" y="38" width="9" height="14" rx="2" fill="#8B5CF6" opacity="0.18"/><rect class="cell" style="animation-delay:0.21s" x="504" y="38" width="9" height="14" rx="2" fill="#8B5CF6" opacity="0.1"/><rect class="cell" style="animation-delay:0.28s" x="516" y="38" width="9" height="14" rx="2" fill="#8B5CF6" opacity="0.7"/><rect class="cell" style="animation-delay:0.35s" x="528" y="38" width="9" height="14" rx="2" fill="#8B5CF6" opacity="0.48"/><rect class="cell" style="animation-delay:0.42s" x="540" y="38" width="9" height="14" rx="2" fill="#8B5CF6" opacity="0.3"/><rect class="cell" style="animation-delay:0.49s" x="552" y="38" width="9" height="14" rx="2" fill="#8B5CF6" opacity="0.18"/><rect class="cell" style="animation-delay:0.56s" x="564" y="38" width="9" height="14" rx="2" fill="#8B5CF6" opacity="0.1"/><rect class="cell" style="animation-delay:0.63s" x="576" y="38" width="9" height="14" rx="2" fill="#8B5CF6" opacity="0.7"/><rect class="cell" style="animation-delay:0.70s" x="588" y="38" width="9" height="14" rx="2" fill="#8B5CF6" opacity="0.48"/><rect class="cell" style="animation-delay:0.77s" x="600" y="38" width="9" height="14" rx="2" fill="#8B5CF6" opacity="0.3"/><rect class="cell" style="animation-delay:0.84s" x="612" y="38" width="9" height="14" rx="2" fill="#8B5CF6" opacity="0.18"/><rect class="cell" style="animation-delay:0.00s" x="0" y="57" width="9" height="14" rx="2" fill="#8B5CF6" opacity="0.48"/><rect class="cell" style="animation-delay:0.07s" x="12" y="57" width="9" height="14" rx="2" fill="#8B5CF6" opacity="0.48"/><rect class="cell" style="animation-delay:0.14s" x="24" y="57" width="9" height="14" rx="2" fill="#8B5CF6" opacity="0.48"/><rect class="cell" style="animation-delay:0.21s" x="36" y="57" width="9" height="14" rx="2" fill="#8B5CF6" opacity="0.48"/><rect class="cell" style="animation-delay:0.28s" x="48" y="57" width="9" height="14" rx="2" fill="#8B5CF6" opacity="0.48"/><rect class="cell" style="animation-delay:0.35s" x="60" y="57" width="9" height="14" rx="2" fill="#8B5CF6" opacity="0.48"/><rect class="cell" style="animation-delay:0.42s" x="72" y="57" width="9" height="14" rx="2" fill="#8B5CF6" opacity="0.48"/><rect class="cell" style="animation-delay:0.49s" x="84" y="57" width="9" height="14" rx="2" fill="#8B5CF6" opacity="0.48"/><rect class="cell" style="animation-delay:0.56s" x="96" y="57" width="9" height="14" rx="2" fill="#8B5CF6" opacity="0.48"/><rect class="cell" style="animation-delay:0.63s" x="108" y="57" width="9" height="14" rx="2" fill="#8B5CF6" opacity="0.48"/><rect class="cell" style="animation-delay:0.70s" x="120" y="57" width="9" height="14" rx="2" fill="#8B5CF6" opacity="0.48"/><rect class="cell" style="animation-delay:0.77s" x="132" y="57" width="9" height="14" rx="2" fill="#8B5CF6" opacity="0.48"/><rect class="cell" style="animation-delay:0.84s" x="144" y="57" width="9" height="14" rx="2" fill="#8B5CF6" opacity="0.48"/><rect class="cell" style="animation-delay:0.00s" x="156" y="57" width="9" height="14" rx="2" fill="#8B5CF6" opacity="0.48"/><rect class="cell" style="animation-delay:0.07s" x="168" y="57" width="9" height="14" rx="2" fill="#8B5CF6" opacity="0.48"/><rect class="cell" style="animation-delay:0.14s" x="180" y="57" width="9" height="14" rx="2" fill="#8B5CF6" opacity="0.48"/><rect class="cell" style="animation-delay:0.21s" x="192" y="57" width="9" height="14" rx="2" fill="#8B5CF6" opacity="0.48"/><rect class="cell" style="animation-delay:0.28s" x="204" y="57" width="9" height="14" rx="2" fill="#8B5CF6" opacity="0.48"/><rect class="cell" style="animation-delay:0.35s" x="216" y="57" width="9" height="14" rx="2" fill="#8B5CF6" opacity="0.48"/><rect class="cell" style="animation-delay:0.42s" x="228" y="57" width="9" height="14" rx="2" fill="#8B5CF6" opacity="0.48"/><rect class="cell" style="animation-delay:0.49s" x="240" y="57" width="9" height="14" rx="2" fill="#8B5CF6" opacity="0.48"/><rect class="cell" style="animation-delay:0.56s" x="252" y="57" width="9" height="14" rx="2" fill="#8B5CF6" opacity="0.48"/><rect class="cell" style="animation-delay:0.63s" x="264" y="57" width="9" height="14" rx="2" fill="#8B5CF6" opacity="0.48"/><rect class="cell" style="animation-delay:0.70s" x="276" y="57" width="9" height="14" rx="2" fill="#8B5CF6" opacity="0.48"/><rect class="cell" style="animation-delay:0.77s" x="288" y="57" width="9" height="14" rx="2" fill="#8B5CF6" opacity="0.48"/><rect class="cell" style="animation-delay:0.84s" x="300" y="57" width="9" height="14" rx="2" fill="#8B5CF6" opacity="0.48"/><rect class="cell" style="animation-delay:0.00s" x="312" y="57" width="9" height="14" rx="2" fill="#8B5CF6" opacity="0.48"/><rect class="cell" style="animation-delay:0.07s" x="324" y="57" width="9" height="14" rx="2" fill="#8B5CF6" opacity="0.48"/><rect class="cell" style="animation-delay:0.14s" x="336" y="57" width="9" height="14" rx="2" fill="#8B5CF6" opacity="0.48"/><rect class="cell" style="animation-delay:0.21s" x="348" y="57" width="9" height="14" rx="2" fill="#8B5CF6" opacity="0.48"/><rect class="cell" style="animation-delay:0.28s" x="360" y="57" width="9" height="14" rx="2" fill="#8B5CF6" opacity="0.48"/><rect class="cell" style="animation-delay:0.35s" x="372" y="57" width="9" height="14" rx="2" fill="#8B5CF6" opacity="0.48"/><rect class="cell" style="animation-delay:0.42s" x="384" y="57" width="9" height="14" rx="2" fill="#8B5CF6" opacity="0.48"/><rect class="cell" style="animation-delay:0.49s" x="396" y="57" width="9" height="14" rx="2" fill="#8B5CF6" opacity="0.48"/><rect class="cell" style="animation-delay:0.56s" x="408" y="57" width="9" height="14" rx="2" fill="#8B5CF6" opacity="0.48"/><rect class="cell" style="animation-delay:0.63s" x="420" y="57" width="9" height="14" rx="2" fill="#8B5CF6" opacity="0.48"/><rect class="cell" style="animation-delay:0.70s" x="432" y="57" width="9" height="14" rx="2" fill="#8B5CF6" opacity="0.48"/><rect class="cell" style="animation-delay:0.77s" x="444" y="57" width="9" height="14" rx="2" fill="#8B5CF6" opacity="0.48"/><rect class="cell" style="animation-delay:0.84s" x="456" y="57" width="9" height="14" rx="2" fill="#8B5CF6" opacity="0.48"/><rect class="cell" style="animation-delay:0.00s" x="468" y="57" width="9" height="14" rx="2" fill="#8B5CF6" opacity="0.48"/><rect class="cell" style="animation-delay:0.07s" x="480" y="57" width="9" height="14" rx="2" fill="#8B5CF6" opacity="0.48"/><rect class="cell" style="animation-delay:0.14s" x="492" y="57" width="9" height="14" rx="2" fill="#8B5CF6" opacity="0.48"/><rect class="cell" style="animation-delay:0.21s" x="504" y="57" width="9" height="14" rx="2" fill="#8B5CF6" opacity="0.48"/><rect class="cell" style="animation-delay:0.28s" x="516" y="57" width="9" height="14" rx="2" fill="#8B5CF6" opacity="0.48"/><rect class="cell" style="animation-delay:0.35s" x="528" y="57" width="9" height="14" rx="2" fill="#8B5CF6" opacity="0.48"/><rect class="cell" style="animation-delay:0.42s" x="540" y="57" width="9" height="14" rx="2" fill="#8B5CF6" opacity="0.48"/><rect class="cell" style="animation-delay:0.49s" x="552" y="57" width="9" height="14" rx="2" fill="#8B5CF6" opacity="0.48"/><rect class="cell" style="animation-delay:0.56s" x="564" y="57" width="9" height="14" rx="2" fill="#8B5CF6" opacity="0.48"/><rect class="cell" style="animation-delay:0.63s" x="576" y="57" width="9" height="14" rx="2" fill="#8B5CF6" opacity="0.48"/><rect class="cell" style="animation-delay:0.70s" x="588" y="57" width="9" height="14" rx="2" fill="#8B5CF6" opacity="0.48"/><rect class="cell" style="animation-delay:0.77s" x="600" y="57" width="9" height="14" rx="2" fill="#8B5CF6" opacity="0.48"/><rect class="cell" style="animation-delay:0.84s" x="612" y="57" width="9" height="14" rx="2" fill="#8B5CF6" opacity="0.48"/><rect class="cell" style="animation-delay:0.00s" x="0" y="76" width="9" height="14" rx="2" fill="#8B5CF6" opacity="0.7"/><rect class="cell" style="animation-delay:0.07s" x="12" y="76" width="9" height="14" rx="2" fill="#8B5CF6" opacity="0.1"/><rect class="cell" style="animation-delay:0.14s" x="24" y="76" width="9" height="14" rx="2" fill="#8B5CF6" opacity="0.18"/><rect class="cell" style="animation-delay:0.21s" x="36" y="76" width="9" height="14" rx="2" fill="#8B5CF6" opacity="0.3"/><rect class="cell" style="animation-delay:0.28s" x="48" y="76" width="9" height="14" rx="2" fill="#8B5CF6" opacity="0.48"/><rect class="cell" style="animation-delay:0.35s" x="60" y="76" width="9" height="14" rx="2" fill="#8B5CF6" opacity="0.7"/><rect class="cell" style="animation-delay:0.42s" x="72" y="76" width="9" height="14" rx="2" fill="#8B5CF6" opacity="0.1"/><rect class="cell" style="animation-delay:0.49s" x="84" y="76" width="9" height="14" rx="2" fill="#8B5CF6" opacity="0.18"/><rect class="cell" style="animation-delay:0.56s" x="96" y="76" width="9" height="14" rx="2" fill="#8B5CF6" opacity="0.3"/><rect class="cell" style="animation-delay:0.63s" x="108" y="76" width="9" height="14" rx="2" fill="#8B5CF6" opacity="0.48"/><rect class="cell" style="animation-delay:0.70s" x="120" y="76" width="9" height="14" rx="2" fill="#8B5CF6" opacity="0.7"/><rect class="cell" style="animation-delay:0.77s" x="132" y="76" width="9" height="14" rx="2" fill="#8B5CF6" opacity="0.1"/><rect class="cell" style="animation-delay:0.84s" x="144" y="76" width="9" height="14" rx="2" fill="#8B5CF6" opacity="0.18"/><rect class="cell" style="animation-delay:0.00s" x="156" y="76" width="9" height="14" rx="2" fill="#8B5CF6" opacity="0.3"/><rect class="cell" style="animation-delay:0.07s" x="168" y="76" width="9" height="14" rx="2" fill="#8B5CF6" opacity="0.48"/><rect class="cell" style="animation-delay:0.14s" x="180" y="76" width="9" height="14" rx="2" fill="#8B5CF6" opacity="0.7"/><rect class="cell" style="animation-delay:0.21s" x="192" y="76" width="9" height="14" rx="2" fill="#8B5CF6" opacity="0.1"/><rect class="cell" style="animation-delay:0.28s" x="204" y="76" width="9" height="14" rx="2" fill="#8B5CF6" opacity="0.18"/><rect class="cell" style="animation-delay:0.35s" x="216" y="76" width="9" height="14" rx="2" fill="#8B5CF6" opacity="0.3"/><rect class="cell" style="animation-delay:0.42s" x="228" y="76" width="9" height="14" rx="2" fill="#8B5CF6" opacity="0.48"/><rect class="cell" style="animation-delay:0.49s" x="240" y="76" width="9" height="14" rx="2" fill="#8B5CF6" opacity="0.7"/><rect class="cell" style="animation-delay:0.56s" x="252" y="76" width="9" height="14" rx="2" fill="#8B5CF6" opacity="0.1"/><rect class="cell" style="animation-delay:0.63s" x="264" y="76" width="9" height="14" rx="2" fill="#8B5CF6" opacity="0.18"/><rect class="cell" style="animation-delay:0.70s" x="276" y="76" width="9" height="14" rx="2" fill="#8B5CF6" opacity="0.3"/><rect class="cell" style="animation-delay:0.77s" x="288" y="76" width="9" height="14" rx="2" fill="#8B5CF6" opacity="0.48"/><rect class="cell" style="animation-delay:0.84s" x="300" y="76" width="9" height="14" rx="2" fill="#8B5CF6" opacity="0.7"/><rect class="cell" style="animation-delay:0.00s" x="312" y="76" width="9" height="14" rx="2" fill="#8B5CF6" opacity="0.1"/><rect class="cell" style="animation-delay:0.07s" x="324" y="76" width="9" height="14" rx="2" fill="#8B5CF6" opacity="0.18"/><rect class="cell" style="animation-delay:0.14s" x="336" y="76" width="9" height="14" rx="2" fill="#8B5CF6" opacity="0.3"/><rect class="cell" style="animation-delay:0.21s" x="348" y="76" width="9" height="14" rx="2" fill="#8B5CF6" opacity="0.48"/><rect class="cell" style="animation-delay:0.28s" x="360" y="76" width="9" height="14" rx="2" fill="#8B5CF6" opacity="0.7"/><rect class="cell" style="animation-delay:0.35s" x="372" y="76" width="9" height="14" rx="2" fill="#8B5CF6" opacity="0.1"/><rect class="cell" style="animation-delay:0.42s" x="384" y="76" width="9" height="14" rx="2" fill="#8B5CF6" opacity="0.18"/><rect class="cell" style="animation-delay:0.49s" x="396" y="76" width="9" height="14" rx="2" fill="#8B5CF6" opacity="0.3"/><rect class="cell" style="animation-delay:0.56s" x="408" y="76" width="9" height="14" rx="2" fill="#8B5CF6" opacity="0.48"/><rect class="cell" style="animation-delay:0.63s" x="420" y="76" width="9" height="14" rx="2" fill="#8B5CF6" opacity="0.7"/><rect class="cell" style="animation-delay:0.70s" x="432" y="76" width="9" height="14" rx="2" fill="#8B5CF6" opacity="0.1"/><rect class="cell" style="animation-delay:0.77s" x="444" y="76" width="9" height="14" rx="2" fill="#8B5CF6" opacity="0.18"/><rect class="cell" style="animation-delay:0.84s" x="456" y="76" width="9" height="14" rx="2" fill="#8B5CF6" opacity="0.3"/><rect class="cell" style="animation-delay:0.00s" x="468" y="76" width="9" height="14" rx="2" fill="#8B5CF6" opacity="0.48"/><rect class="cell" style="animation-delay:0.07s" x="480" y="76" width="9" height="14" rx="2" fill="#8B5CF6" opacity="0.7"/><rect class="cell" style="animation-delay:0.14s" x="492" y="76" width="9" height="14" rx="2" fill="#8B5CF6" opacity="0.1"/><rect class="cell" style="animation-delay:0.21s" x="504" y="76" width="9" height="14" rx="2" fill="#8B5CF6" opacity="0.18"/><rect class="cell" style="animation-delay:0.28s" x="516" y="76" width="9" height="14" rx="2" fill="#8B5CF6" opacity="0.3"/><rect class="cell" style="animation-delay:0.35s" x="528" y="76" width="9" height="14" rx="2" fill="#8B5CF6" opacity="0.48"/><rect class="cell" style="animation-delay:0.42s" x="540" y="76" width="9" height="14" rx="2" fill="#8B5CF6" opacity="0.7"/><rect class="cell" style="animation-delay:0.49s" x="552" y="76" width="9" height="14" rx="2" fill="#8B5CF6" opacity="0.1"/><rect class="cell" style="animation-delay:0.56s" x="564" y="76" width="9" height="14" rx="2" fill="#8B5CF6" opacity="0.18"/><rect class="cell" style="animation-delay:0.63s" x="576" y="76" width="9" height="14" rx="2" fill="#8B5CF6" opacity="0.3"/><rect class="cell" style="animation-delay:0.70s" x="588" y="76" width="9" height="14" rx="2" fill="#8B5CF6" opacity="0.48"/><rect class="cell" style="animation-delay:0.77s" x="600" y="76" width="9" height="14" rx="2" fill="#8B5CF6" opacity="0.7"/><rect class="cell" style="animation-delay:0.84s" x="612" y="76" width="9" height="14" rx="2" fill="#8B5CF6" opacity="0.1"/><rect class="cell" style="animation-delay:0.00s" x="0" y="95" width="9" height="14" rx="2" fill="#8B5CF6" opacity="0.1"/><rect class="cell" style="animation-delay:0.07s" x="12" y="95" width="9" height="14" rx="2" fill="#8B5CF6" opacity="0.3"/><rect class="cell" style="animation-delay:0.14s" x="24" y="95" width="9" height="14" rx="2" fill="#8B5CF6" opacity="0.7"/><rect class="cell" style="animation-delay:0.21s" x="36" y="95" width="9" height="14" rx="2" fill="#8B5CF6" opacity="0.18"/><rect class="cell" style="animation-delay:0.28s" x="48" y="95" width="9" height="14" rx="2" fill="#8B5CF6" opacity="0.48"/><rect class="cell" style="animation-delay:0.35s" x="60" y="95" width="9" height="14" rx="2" fill="#8B5CF6" opacity="0.1"/><rect class="cell" style="animation-delay:0.42s" x="72" y="95" width="9" height="14" rx="2" fill="#8B5CF6" opacity="0.3"/><rect class="cell" style="animation-delay:0.49s" x="84" y="95" width="9" height="14" rx="2" fill="#8B5CF6" opacity="0.7"/><rect class="cell" style="animation-delay:0.56s" x="96" y="95" width="9" height="14" rx="2" fill="#8B5CF6" opacity="0.18"/><rect class="cell" style="animation-delay:0.63s" x="108" y="95" width="9" height="14" rx="2" fill="#8B5CF6" opacity="0.48"/><rect class="cell" style="animation-delay:0.70s" x="120" y="95" width="9" height="14" rx="2" fill="#8B5CF6" opacity="0.1"/><rect class="cell" style="animation-delay:0.77s" x="132" y="95" width="9" height="14" rx="2" fill="#8B5CF6" opacity="0.3"/><rect class="cell" style="animation-delay:0.84s" x="144" y="95" width="9" height="14" rx="2" fill="#8B5CF6" opacity="0.7"/><rect class="cell" style="animation-delay:0.00s" x="156" y="95" width="9" height="14" rx="2" fill="#8B5CF6" opacity="0.18"/><rect class="cell" style="animation-delay:0.07s" x="168" y="95" width="9" height="14" rx="2" fill="#8B5CF6" opacity="0.48"/><rect class="cell" style="animation-delay:0.14s" x="180" y="95" width="9" height="14" rx="2" fill="#8B5CF6" opacity="0.1"/><rect class="cell" style="animation-delay:0.21s" x="192" y="95" width="9" height="14" rx="2" fill="#8B5CF6" opacity="0.3"/><rect class="cell" style="animation-delay:0.28s" x="204" y="95" width="9" height="14" rx="2" fill="#8B5CF6" opacity="0.7"/><rect class="cell" style="animation-delay:0.35s" x="216" y="95" width="9" height="14" rx="2" fill="#8B5CF6" opacity="0.18"/><rect class="cell" style="animation-delay:0.42s" x="228" y="95" width="9" height="14" rx="2" fill="#8B5CF6" opacity="0.48"/><rect class="cell" style="animation-delay:0.49s" x="240" y="95" width="9" height="14" rx="2" fill="#8B5CF6" opacity="0.1"/><rect class="cell" style="animation-delay:0.56s" x="252" y="95" width="9" height="14" rx="2" fill="#8B5CF6" opacity="0.3"/><rect class="cell" style="animation-delay:0.63s" x="264" y="95" width="9" height="14" rx="2" fill="#8B5CF6" opacity="0.7"/><rect class="cell" style="animation-delay:0.70s" x="276" y="95" width="9" height="14" rx="2" fill="#8B5CF6" opacity="0.18"/><rect class="cell" style="animation-delay:0.77s" x="288" y="95" width="9" height="14" rx="2" fill="#8B5CF6" opacity="0.48"/><rect class="cell" style="animation-delay:0.84s" x="300" y="95" width="9" height="14" rx="2" fill="#8B5CF6" opacity="0.1"/><rect class="cell" style="animation-delay:0.00s" x="312" y="95" width="9" height="14" rx="2" fill="#8B5CF6" opacity="0.3"/><rect class="cell" style="animation-delay:0.07s" x="324" y="95" width="9" height="14" rx="2" fill="#8B5CF6" opacity="0.7"/><rect class="cell" style="animation-delay:0.14s" x="336" y="95" width="9" height="14" rx="2" fill="#8B5CF6" opacity="0.18"/><rect class="cell" style="animation-delay:0.21s" x="348" y="95" width="9" height="14" rx="2" fill="#8B5CF6" opacity="0.48"/><rect class="cell" style="animation-delay:0.28s" x="360" y="95" width="9" height="14" rx="2" fill="#8B5CF6" opacity="0.1"/><rect class="cell" style="animation-delay:0.35s" x="372" y="95" width="9" height="14" rx="2" fill="#8B5CF6" opacity="0.3"/><rect class="cell" style="animation-delay:0.42s" x="384" y="95" width="9" height="14" rx="2" fill="#8B5CF6" opacity="0.7"/><rect class="cell" style="animation-delay:0.49s" x="396" y="95" width="9" height="14" rx="2" fill="#8B5CF6" opacity="0.18"/><rect class="cell" style="animation-delay:0.56s" x="408" y="95" width="9" height="14" rx="2" fill="#8B5CF6" opacity="0.48"/><rect class="cell" style="animation-delay:0.63s" x="420" y="95" width="9" height="14" rx="2" fill="#8B5CF6" opacity="0.1"/><rect class="cell" style="animation-delay:0.70s" x="432" y="95" width="9" height="14" rx="2" fill="#8B5CF6" opacity="0.3"/><rect class="cell" style="animation-delay:0.77s" x="444" y="95" width="9" height="14" rx="2" fill="#8B5CF6" opacity="0.7"/><rect class="cell" style="animation-delay:0.84s" x="456" y="95" width="9" height="14" rx="2" fill="#8B5CF6" opacity="0.18"/><rect class="cell" style="animation-delay:0.00s" x="468" y="95" width="9" height="14" rx="2" fill="#8B5CF6" opacity="0.48"/><rect class="cell" style="animation-delay:0.07s" x="480" y="95" width="9" height="14" rx="2" fill="#8B5CF6" opacity="0.1"/><rect class="cell" style="animation-delay:0.14s" x="492" y="95" width="9" height="14" rx="2" fill="#8B5CF6" opacity="0.3"/><rect class="cell" style="animation-delay:0.21s" x="504" y="95" width="9" height="14" rx="2" fill="#8B5CF6" opacity="0.7"/><rect class="cell" style="animation-delay:0.28s" x="516" y="95" width="9" height="14" rx="2" fill="#8B5CF6" opacity="0.18"/><rect class="cell" style="animation-delay:0.35s" x="528" y="95" width="9" height="14" rx="2" fill="#8B5CF6" opacity="0.48"/><rect class="cell" style="animation-delay:0.42s" x="540" y="95" width="9" height="14" rx="2" fill="#8B5CF6" opacity="0.1"/><rect class="cell" style="animation-delay:0.49s" x="552" y="95" width="9" height="14" rx="2" fill="#8B5CF6" opacity="0.3"/><rect class="cell" style="animation-delay:0.56s" x="564" y="95" width="9" height="14" rx="2" fill="#8B5CF6" opacity="0.7"/><rect class="cell" style="animation-delay:0.63s" x="576" y="95" width="9" height="14" rx="2" fill="#8B5CF6" opacity="0.18"/><rect class="cell" style="animation-delay:0.70s" x="588" y="95" width="9" height="14" rx="2" fill="#8B5CF6" opacity="0.48"/><rect class="cell" style="animation-delay:0.77s" x="600" y="95" width="9" height="14" rx="2" fill="#8B5CF6" opacity="0.1"/><rect class="cell" style="animation-delay:0.84s" x="612" y="95" width="9" height="14" rx="2" fill="#8B5CF6" opacity="0.3"/><rect class="cell" style="animation-delay:0.00s" x="0" y="114" width="9" height="14" rx="2" fill="#8B5CF6" opacity="0.18"/><rect class="cell" style="animation-delay:0.07s" x="12" y="114" width="9" height="14" rx="2" fill="#8B5CF6" opacity="0.7"/><rect class="cell" style="animation-delay:0.14s" x="24" y="114" width="9" height="14" rx="2" fill="#8B5CF6" opacity="0.3"/><rect class="cell" style="animation-delay:0.21s" x="36" y="114" width="9" height="14" rx="2" fill="#8B5CF6" opacity="0.1"/><rect class="cell" style="animation-delay:0.28s" x="48" y="114" width="9" height="14" rx="2" fill="#8B5CF6" opacity="0.48"/><rect class="cell" style="animation-delay:0.35s" x="60" y="114" width="9" height="14" rx="2" fill="#8B5CF6" opacity="0.18"/><rect class="cell" style="animation-delay:0.42s" x="72" y="114" width="9" height="14" rx="2" fill="#8B5CF6" opacity="0.7"/><rect class="cell" style="animation-delay:0.49s" x="84" y="114" width="9" height="14" rx="2" fill="#8B5CF6" opacity="0.3"/><rect class="cell" style="animation-delay:0.56s" x="96" y="114" width="9" height="14" rx="2" fill="#8B5CF6" opacity="0.1"/><rect class="cell" style="animation-delay:0.63s" x="108" y="114" width="9" height="14" rx="2" fill="#8B5CF6" opacity="0.48"/><rect class="cell" style="animation-delay:0.70s" x="120" y="114" width="9" height="14" rx="2" fill="#8B5CF6" opacity="0.18"/><rect class="cell" style="animation-delay:0.77s" x="132" y="114" width="9" height="14" rx="2" fill="#8B5CF6" opacity="0.7"/><rect class="cell" style="animation-delay:0.84s" x="144" y="114" width="9" height="14" rx="2" fill="#8B5CF6" opacity="0.3"/><rect class="cell" style="animation-delay:0.00s" x="156" y="114" width="9" height="14" rx="2" fill="#8B5CF6" opacity="0.1"/><rect class="cell" style="animation-delay:0.07s" x="168" y="114" width="9" height="14" rx="2" fill="#8B5CF6" opacity="0.48"/><rect class="cell" style="animation-delay:0.14s" x="180" y="114" width="9" height="14" rx="2" fill="#8B5CF6" opacity="0.18"/><rect class="cell" style="animation-delay:0.21s" x="192" y="114" width="9" height="14" rx="2" fill="#8B5CF6" opacity="0.7"/><rect class="cell" style="animation-delay:0.28s" x="204" y="114" width="9" height="14" rx="2" fill="#8B5CF6" opacity="0.3"/><rect class="cell" style="animation-delay:0.35s" x="216" y="114" width="9" height="14" rx="2" fill="#8B5CF6" opacity="0.1"/><rect class="cell" style="animation-delay:0.42s" x="228" y="114" width="9" height="14" rx="2" fill="#8B5CF6" opacity="0.48"/><rect class="cell" style="animation-delay:0.49s" x="240" y="114" width="9" height="14" rx="2" fill="#8B5CF6" opacity="0.18"/><rect class="cell" style="animation-delay:0.56s" x="252" y="114" width="9" height="14" rx="2" fill="#8B5CF6" opacity="0.7"/><rect class="cell" style="animation-delay:0.63s" x="264" y="114" width="9" height="14" rx="2" fill="#8B5CF6" opacity="0.3"/><rect class="cell" style="animation-delay:0.70s" x="276" y="114" width="9" height="14" rx="2" fill="#8B5CF6" opacity="0.1"/><rect class="cell" style="animation-delay:0.77s" x="288" y="114" width="9" height="14" rx="2" fill="#8B5CF6" opacity="0.48"/><rect class="cell" style="animation-delay:0.84s" x="300" y="114" width="9" height="14" rx="2" fill="#8B5CF6" opacity="0.18"/><rect class="cell" style="animation-delay:0.00s" x="312" y="114" width="9" height="14" rx="2" fill="#8B5CF6" opacity="0.7"/><rect class="cell" style="animation-delay:0.07s" x="324" y="114" width="9" height="14" rx="2" fill="#8B5CF6" opacity="0.3"/><rect class="cell" style="animation-delay:0.14s" x="336" y="114" width="9" height="14" rx="2" fill="#8B5CF6" opacity="0.1"/><rect class="cell" style="animation-delay:0.21s" x="348" y="114" width="9" height="14" rx="2" fill="#8B5CF6" opacity="0.48"/><rect class="cell" style="animation-delay:0.28s" x="360" y="114" width="9" height="14" rx="2" fill="#8B5CF6" opacity="0.18"/><rect class="cell" style="animation-delay:0.35s" x="372" y="114" width="9" height="14" rx="2" fill="#8B5CF6" opacity="0.7"/><rect class="cell" style="animation-delay:0.42s" x="384" y="114" width="9" height="14" rx="2" fill="#8B5CF6" opacity="0.3"/><rect class="cell" style="animation-delay:0.49s" x="396" y="114" width="9" height="14" rx="2" fill="#8B5CF6" opacity="0.1"/><rect class="cell" style="animation-delay:0.56s" x="408" y="114" width="9" height="14" rx="2" fill="#8B5CF6" opacity="0.48"/><rect class="cell" style="animation-delay:0.63s" x="420" y="114" width="9" height="14" rx="2" fill="#8B5CF6" opacity="0.18"/><rect class="cell" style="animation-delay:0.70s" x="432" y="114" width="9" height="14" rx="2" fill="#8B5CF6" opacity="0.7"/><rect class="cell" style="animation-delay:0.77s" x="444" y="114" width="9" height="14" rx="2" fill="#8B5CF6" opacity="0.3"/><rect class="cell" style="animation-delay:0.84s" x="456" y="114" width="9" height="14" rx="2" fill="#8B5CF6" opacity="0.1"/><rect class="cell" style="animation-delay:0.00s" x="468" y="114" width="9" height="14" rx="2" fill="#8B5CF6" opacity="0.48"/><rect class="cell" style="animation-delay:0.07s" x="480" y="114" width="9" height="14" rx="2" fill="#8B5CF6" opacity="0.18"/><rect class="cell" style="animation-delay:0.14s" x="492" y="114" width="9" height="14" rx="2" fill="#8B5CF6" opacity="0.7"/><rect class="cell" style="animation-delay:0.21s" x="504" y="114" width="9" height="14" rx="2" fill="#8B5CF6" opacity="0.3"/><rect class="cell" style="animation-delay:0.28s" x="516" y="114" width="9" height="14" rx="2" fill="#8B5CF6" opacity="0.1"/><rect class="cell" style="animation-delay:0.35s" x="528" y="114" width="9" height="14" rx="2" fill="#8B5CF6" opacity="0.48"/><rect class="cell" style="animation-delay:0.42s" x="540" y="114" width="9" height="14" rx="2" fill="#8B5CF6" opacity="0.18"/><rect class="cell" style="animation-delay:0.49s" x="552" y="114" width="9" height="14" rx="2" fill="#8B5CF6" opacity="0.7"/><rect class="cell" style="animation-delay:0.56s" x="564" y="114" width="9" height="14" rx="2" fill="#8B5CF6" opacity="0.3"/><rect class="cell" style="animation-delay:0.63s" x="576" y="114" width="9" height="14" rx="2" fill="#8B5CF6" opacity="0.1"/><rect class="cell" style="animation-delay:0.70s" x="588" y="114" width="9" height="14" rx="2" fill="#8B5CF6" opacity="0.48"/><rect class="cell" style="animation-delay:0.77s" x="600" y="114" width="9" height="14" rx="2" fill="#8B5CF6" opacity="0.18"/><rect class="cell" style="animation-delay:0.84s" x="612" y="114" width="9" height="14" rx="2" fill="#8B5CF6" opacity="0.7"/>
</g>
<g font-family="ui-monospace,monospace" font-size="9" fill="#64748B">
  <text x="75" y="225">LESS</text><text x="675" y="225">MORE</text>
</g>
<g clip-path="url(#clip)" opacity=".28">
  <rect x="-100" y="55" width="80" height="145" fill="url(#g)" transform="skewX(-15)" filter="url(#gl)"
        style="animation:sweep 5.5s ease-in-out infinite"/>
</g>
</svg>
